<svg xmlns="http://www.w3.org/2000/svg" xml:space="preserve" id="low-battery" x="0" y="0" version="1.1" viewBox="0 0 29 29">
  <path d="M4.25 9h17a2 2 0 0 1 2 2v7a2 2 0 0 1-2 2h-17a2 2 0 0 1-2-2v-7a2 2 0 0 1 2-2z" style="fill:none;stroke:#fff;stroke-miterlimit:10"></path>
  <path d="M4.75 10.5h13v8h-13a1 1 0 0 1-1-1v-6a1 1 0 0 1 1-1zM24.75 12.05v4.899a2.5 2.5 0 0 0 0-4.899z" fill="#fff"></path>
  <g>
    <path d="M4.25 9h17a2 2 0 0 1 2 2v7a2 2 0 0 1-2 2h-17a2 2 0 0 1-2-2v-7a2 2 0 0 1 2-2z" style="fill:none;stroke:#fff;stroke-miterlimit:10"></path>
    <path d="M4.75 10.5h13v8h-13a1 1 0 0 1-1-1v-6a1 1 0 0 1 1-1zM24.75 12.05v4.899a2.5 2.5 0 0 0 0-4.899z" fill="#fff"></path>
  </g>
</svg>